<?xml version="1.0" encoding="utf-8"?>
<!-- Generator: Adobe Illustrator 23.0.0, SVG Export Plug-In . SVG Version: 6.00 Build 0)  -->
<svg version="1.1" id="Layer_1" xmlns="http://www.w3.org/2000/svg" xmlns:xlink="http://www.w3.org/1999/xlink" x="0px" y="0px"
	 viewBox="0 0 640 480" style="enable-background:new 0 0 640 480;" xml:space="preserve">
<style type="text/css">
	.st0{fill:#4A4A4A;}
</style>
<g>
	<path class="st0" d="M181.2,123.2v35.7h55.6v-35.7c0-5.1,1.2-8.9,3.5-11.5c2.3-2.5,5.4-3.8,9.2-3.8c3.9,0,7,1.3,9.4,3.8
		c2.4,2.5,3.6,6.4,3.6,11.5v98c0,5.1-1.2,9-3.6,11.5c-2.4,2.5-5.6,3.8-9.4,3.8c-3.9,0-7-1.3-9.3-3.9c-2.3-2.6-3.5-6.4-3.5-11.5
		v-41.9h-55.6v41.9c0,5.1-1.2,9-3.6,11.5c-2.4,2.5-5.6,3.8-9.4,3.8c-3.9,0-7-1.3-9.3-3.9c-2.3-2.6-3.5-6.4-3.5-11.5v-98
		c0-5.1,1.1-8.9,3.4-11.5c2.3-2.5,5.4-3.8,9.3-3.8c3.9,0,7,1.3,9.4,3.8S181.2,118.1,181.2,123.2z"/>
	<path class="st0" d="M263.2,121v2.8c4.4-5.4,8.9-9.3,13.6-11.8c4.7-2.5,10-3.8,16-3.8c7.1,0,13.7,1.8,19.7,5.5s10.7,9.1,14.2,16.1
		s5.2,15.5,5.2,25.1c0,7.1-1,13.7-3,19.7s-4.8,11-8.3,15c-3.5,4-7.7,7.2-12.4,9.3s-9.9,3.3-15.4,3.3c-6.6,0-12.2-1.3-16.7-4
		c-4.5-2.7-8.8-6.6-12.9-11.7v34.8c0,10.2-3.7,15.3-11.1,15.3c-4.4,0-7.2-1.3-8.7-3.9c-1.4-2.6-2.1-6.5-2.1-11.5v-100
		c0-4.4,1-7.7,2.9-9.9c1.9-2.2,4.6-3.3,7.9-3.3c3.3,0,6,1.1,8,3.4S263.2,116.8,263.2,121z M305.1,154.7c0-6.1-0.9-11.4-2.8-15.7
		c-1.9-4.4-4.5-7.8-7.8-10.1s-7-3.5-11-3.5c-6.4,0-11.8,2.5-16.2,7.6c-4.4,5-6.6,12.4-6.6,22.2c0,9.2,2.2,16.4,6.5,21.5
		s9.8,7.7,16.2,7.7c3.8,0,7.4-1.1,10.7-3.4c3.3-2.2,5.9-5.6,7.9-10.1C304.1,166.4,305.1,161,305.1,154.7z"/>
	<path class="st0" d="M286,163.4h-6.1v-9h-9v-6.2h9v-9h6.1v9h9.1v6.2H286V163.4z"/>
</g>
</svg>
